<?xml version="1.0" encoding="UTF-8" standalone="no"?>
<!-- Created with Inkscape (http://www.inkscape.org/) -->

<svg
   xmlns:dc="http://purl.org/dc/elements/1.1/"
   xmlns:cc="http://creativecommons.org/ns#"
   xmlns:rdf="http://www.w3.org/1999/02/22-rdf-syntax-ns#"
   xmlns:svg="http://www.w3.org/2000/svg"
   xmlns="http://www.w3.org/2000/svg"
   xmlns:xlink="http://www.w3.org/1999/xlink"
   xmlns:sodipodi="http://sodipodi.sourceforge.net/DTD/sodipodi-0.dtd"
   xmlns:inkscape="http://www.inkscape.org/namespaces/inkscape"
   width="111.52406mm"
   height="48.72578mm"
   viewBox="0 0 111.52406 48.72578"
   version="1.1"
   id="svg337"
   inkscape:version="0.92.3 (2405546, 2018-03-11)"
   sodipodi:docname="bg.svg">
  <defs
     id="defs331">
    <linearGradient
       inkscape:collect="always"
       id="linearGradient851">
      <stop
         style="stop-color:#62aa41;stop-opacity:1"
         offset="0"
         id="stop847" />
      <stop
         style="stop-color:#30d195;stop-opacity:1"
         offset="1"
         id="stop849" />
    </linearGradient>
    <linearGradient
       inkscape:collect="always"
       xlink:href="#linearGradient851"
       id="linearGradient853"
       x1="116.06232"
       y1="161.87352"
       x2="123.48009"
       y2="156.53459"
       gradientUnits="userSpaceOnUse" />
  </defs>
  <sodipodi:namedview
     id="base"
     pagecolor="#000000"
     bordercolor="#666666"
     borderopacity="1.0"
     inkscape:pageopacity="0"
     inkscape:pageshadow="2"
     inkscape:zoom="0.35"
     inkscape:cx="1265.2089"
     inkscape:cy="591.26113"
     inkscape:document-units="mm"
     inkscape:current-layer="g831"
     showgrid="false"
     inkscape:window-width="1920"
     inkscape:window-height="1052"
     inkscape:window-x="0"
     inkscape:window-y="0"
     inkscape:window-maximized="1"
     units="mm" />
  <metadata
     id="metadata334">
    <rdf:RDF>
      <cc:Work
         rdf:about="">
        <dc:format>image/svg+xml</dc:format>
        <dc:type
           rdf:resource="http://purl.org/dc/dcmitype/StillImage" />
        <dc:title></dc:title>
      </cc:Work>
    </rdf:RDF>
  </metadata>
  <g
     inkscape:label="Layer 1"
     inkscape:groupmode="layer"
     id="layer1"
     transform="translate(-195.91728,-84.344)">
    <g
       id="g831">
      <rect
         style="fill:#0d1a2a;fill-opacity:1;stroke:none;stroke-width:0.26500002;stroke-miterlimit:4;stroke-dasharray:none;stroke-dashoffset:0;stroke-opacity:1"
         id="rect937"
         width="508"
         height="285.75"
         x="-2.3206935"
         y="-34.16811"
         rx="1.2623166"
         ry="2.6096592" />
      <g
         id="g913"
         transform="translate(161.23461,-41.19998)">
        <path
           inkscape:connector-curvature="0"
           id="path1758"
           d="m 90.301869,125.54398 c -1.725362,4.25178 0.519488,3.9518 1.314395,5.79746 1.441149,-2.96742 -0.246058,-3.42535 -1.314395,-5.79746 z m 7.488301,1.96877 c -1.597103,2.53503 -4.681161,2.10863 -5.388628,4.95774 -0.182836,0.73635 -0.202086,1.69002 0,2.97239 v 2.90703 c -1.360678,-4.26257 -5.772561,-3.80197 -9.462539,-7.82661 1.546005,12.57248 5.607475,7.87589 9.462539,13.64579 v 2.33445 h 0.430886 v -10.90237 c 1.944209,-1.95383 5.968336,-1.91036 4.957742,-8.08842 z"
           style="fill:#62aa41;fill-opacity:1;stroke:none;stroke-width:3.12274814" />
        <text
           xml:space="preserve"
           style="font-style:normal;font-variant:normal;font-weight:normal;font-stretch:normal;font-size:8.58837509px;line-height:1.25;font-family:FreeSans;-inkscape-font-specification:'FreeSans, Normal';font-variant-ligatures:normal;font-variant-caps:normal;font-variant-numeric:normal;font-feature-settings:normal;text-align:start;letter-spacing:0px;word-spacing:0px;writing-mode:lr-tb;text-anchor:start;fill:#ffffff;fill-opacity:1;stroke:none;stroke-width:0.29278424"
           x="34.344006"
           y="173.34689"
           id="text1770"><tspan
             sodipodi:role="line"
             id="tspan1768"
             x="34.344006"
             y="173.34689"
             style="font-style:normal;font-variant:normal;font-weight:normal;font-stretch:normal;font-size:4.23333311px;font-family:FreeSans;-inkscape-font-specification:'FreeSans, Normal';font-variant-ligatures:normal;font-variant-caps:normal;font-variant-numeric:normal;font-feature-settings:normal;text-align:start;letter-spacing:2.64583325px;writing-mode:lr-tb;text-anchor:start;fill:#ffffff;stroke-width:0.29278424">Nikmatnya Sebuah Racikan</tspan></text>
        <g
           style="stroke-width:1.15493739"
           transform="matrix(0.86584784,0,0,0.86584784,12.133353,22.449293)"
           id="g879">
          <text
             id="text1776"
             y="166.85454"
             x="41.986038"
             style="font-style:normal;font-variant:normal;font-weight:normal;font-stretch:normal;font-size:21.19453621px;line-height:1.25;font-family:FreeSans;-inkscape-font-specification:'FreeSans, Normal';font-variant-ligatures:normal;font-variant-caps:normal;font-variant-numeric:normal;font-feature-settings:normal;text-align:start;letter-spacing:0px;word-spacing:0px;writing-mode:lr-tb;text-anchor:start;fill:#ffffff;fill-opacity:1;stroke:none;stroke-width:0.83449143"
             xml:space="preserve"><tspan
               style="font-style:normal;font-variant:normal;font-weight:normal;font-stretch:normal;font-size:21.19453621px;font-family:FreeSans;-inkscape-font-specification:'FreeSans, Normal';font-variant-ligatures:normal;font-variant-caps:normal;font-variant-numeric:normal;font-feature-settings:normal;text-align:start;writing-mode:lr-tb;text-anchor:start;fill:#ffffff;fill-opacity:1;stroke-width:0.83449143"
               y="166.85454"
               x="41.986038"
               id="tspan1774"
               sodipodi:role="line">tealinux   s</tspan></text>
          <g
             id="g857"
             transform="matrix(1.0612658,0,0,1.0612658,-3.6735942,-10.252347)"
             style="stroke-width:1.08826399">
            <path
               style="fill:#ffffff;fill-opacity:1;stroke:none;stroke-width:0.28838992;stroke-miterlimit:4;stroke-dasharray:none;stroke-dashoffset:0;stroke-opacity:1"
               d="m 118.09488,155.7743 a 5.7837655,5.7837655 0 0 0 -5.78385,5.78386 5.7837655,5.7837655 0 0 0 5.78385,5.78385 5.7837655,5.7837655 0 0 0 5.78386,-5.78385 5.7837655,5.7837655 0 0 0 -5.78386,-5.78386 z m 0,1.6378 a 4.1459179,4.1459179 0 0 1 4.14606,4.14606 4.1459179,4.1459179 0 0 1 -4.14606,4.14605 4.1459179,4.1459179 0 0 1 -4.14605,-4.14605 4.1459179,4.1459179 0 0 1 4.14605,-4.14606 z"
               id="path874"
               inkscape:connector-curvature="0" />
            <path
               inkscape:connector-curvature="0"
               style="fill:url(#linearGradient853);fill-opacity:1;stroke:none;stroke-width:0.28838989;stroke-miterlimit:4;stroke-dasharray:none;stroke-dashoffset:0;stroke-opacity:1"
               d="m 118.09488,155.7743 a 5.7837652,5.7837652 0 0 0 -5.78385,5.78386 5.7837652,5.7837652 0 0 0 1.14311,3.44039 l 1.31359,-0.97389 a 4.1459178,4.1459178 0 0 1 -0.8189,-2.4665 4.1459178,4.1459178 0 0 1 4.14605,-4.14606 4.1459178,4.1459178 0 0 1 4.14606,4.14606 4.1459178,4.1459178 0 0 1 -0.8733,2.53767 l 1.29556,1.00489 a 5.7837652,5.7837652 0 0 0 1.21554,-3.54256 5.7837652,5.7837652 0 0 0 -5.78386,-5.78386 z"
               id="path828" />
          </g>
        </g>
      </g>
    </g>
  </g>
</svg>
